<?xml version="1.0" standalone="no"?><svg xmlns="http://www.w3.org/2000/svg" viewBox="0 0 1440 320"><path fill="#808080" fill-opacity="1" d="M0,64L14.1,90.7C28.2,117,56,171,85,202.7C112.9,235,141,245,169,256C197.6,267,226,277,254,256C282.4,235,311,181,339,144C367.1,107,395,85,424,85.3C451.8,85,480,107,508,122.7C536.5,139,565,149,593,154.7C621.2,160,649,160,678,186.7C705.9,213,734,267,762,250.7C790.6,235,819,149,847,101.3C875.3,53,904,43,932,74.7C960,107,988,181,1016,224C1044.7,267,1073,277,1101,272C1129.4,267,1158,245,1186,229.3C1214.1,213,1242,203,1271,165.3C1298.8,128,1327,64,1355,74.7C1383.5,85,1412,171,1426,213.3L1440,256L1440,320L1425.9,320C1411.8,320,1384,320,1355,320C1327.1,320,1299,320,1271,320C1242.4,320,1214,320,1186,320C1157.6,320,1129,320,1101,320C1072.9,320,1045,320,1016,320C988.2,320,960,320,932,320C903.5,320,875,320,847,320C818.8,320,791,320,762,320C734.1,320,706,320,678,320C649.4,320,621,320,593,320C564.7,320,536,320,508,320C480,320,452,320,424,320C395.3,320,367,320,339,320C310.6,320,282,320,254,320C225.9,320,198,320,169,320C141.2,320,113,320,85,320C56.5,320,28,320,14,320L0,320Z"></path></svg>