<?xml version="1.0" standalone="no"?><svg xmlns="http://www.w3.org/2000/svg" viewBox="0 0 1440 320"><path fill="#273036" fill-opacity="1" d="M0,128L14.1,138.7C28.2,149,56,171,85,176C112.9,181,141,171,169,186.7C197.6,203,226,245,254,224C282.4,203,311,117,339,80C367.1,43,395,53,424,48C451.8,43,480,21,508,26.7C536.5,32,565,64,593,85.3C621.2,107,649,117,678,122.7C705.9,128,734,128,762,133.3C790.6,139,819,149,847,128C875.3,107,904,53,932,48C960,43,988,85,1016,90.7C1044.7,96,1073,64,1101,69.3C1129.4,75,1158,117,1186,112C1214.1,107,1242,53,1271,58.7C1298.8,64,1327,128,1355,154.7C1383.5,181,1412,171,1426,165.3L1440,160L1440,320L1425.9,320C1411.8,320,1384,320,1355,320C1327.1,320,1299,320,1271,320C1242.4,320,1214,320,1186,320C1157.6,320,1129,320,1101,320C1072.9,320,1045,320,1016,320C988.2,320,960,320,932,320C903.5,320,875,320,847,320C818.8,320,791,320,762,320C734.1,320,706,320,678,320C649.4,320,621,320,593,320C564.7,320,536,320,508,320C480,320,452,320,424,320C395.3,320,367,320,339,320C310.6,320,282,320,254,320C225.9,320,198,320,169,320C141.2,320,113,320,85,320C56.5,320,28,320,14,320L0,320Z"></path></svg>